ply
format ascii 1.0
comment Created by Blender 2.81 (sub 16) - www.blender.org, source file: ''
element vertex 339
property float x
property float y
property float z
property float nx
property float ny
property float nz
property float s
property float t
element face 128
property list uchar uint vertex_indices
end_header
0.000000 1.000000 -1.000000 0.087754 0.890977 0.445488 0.250000 0.490000
0.000000 0.500000 0.000000 0.087754 0.890977 0.445488 0.250000 0.370000
0.065030 0.660262 -0.333333 0.087754 0.890977 0.445488 0.265607 0.408463
0.097545 0.990393 -1.000000 0.087754 0.890977 0.445488 0.273411 0.487694
0.000000 0.000000 1.000000 0.087754 0.890977 0.445488 0.250000 0.250000
0.097545 0.490393 0.000000 0.087754 0.890977 0.445488 0.273411 0.367694
0.195090 0.980785 -1.000000 0.087754 0.890977 0.445488 0.296822 0.485389
0.195090 0.980785 -1.000000 0.259888 0.856737 0.445488 0.296822 0.485389
0.097545 0.490393 0.000000 0.259888 0.856737 0.445488 0.273411 0.367694
0.192591 0.634888 -0.333333 0.259888 0.856737 0.445488 0.296222 0.402373
0.288887 0.952333 -1.000000 0.259888 0.856737 0.445488 0.319333 0.478560
0.000000 0.000000 1.000000 0.259888 0.856737 0.445488 0.250000 0.250000
0.191342 0.461940 0.000000 0.259888 0.856737 0.445488 0.295922 0.360866
0.382684 0.923880 -1.000000 0.259888 0.856737 0.445488 0.341844 0.471731
0.382684 0.923880 -1.000000 0.422036 0.789573 0.445488 0.341844 0.471731
0.191342 0.461940 0.000000 0.422036 0.789573 0.445488 0.295922 0.360866
0.312751 0.585116 -0.333333 0.422036 0.789573 0.445488 0.325060 0.390428
0.469127 0.877675 -1.000000 0.422036 0.789573 0.445488 0.362590 0.460642
0.000000 0.000000 1.000000 0.422036 0.789573 0.445488 0.250000 0.250000
0.277785 0.415735 0.000000 0.422036 0.789573 0.445488 0.316668 0.349776
0.555570 0.831470 -1.000000 0.422035 0.789573 0.445488 0.383337 0.449553
0.469127 0.877675 -1.000000 0.422035 0.789573 0.445488 0.362590 0.460642
0.312751 0.585116 -0.333333 0.422035 0.789573 0.445488 0.325060 0.390428
0.277785 0.415735 0.000000 0.422035 0.789573 0.445488 0.316668 0.349776
0.555570 0.831470 -1.000000 0.567964 0.692067 0.445488 0.383337 0.449553
0.277785 0.415735 0.000000 0.567964 0.692067 0.445488 0.316668 0.349776
0.420892 0.512859 -0.333333 0.567964 0.692067 0.445488 0.351014 0.373086
0.631339 0.769288 -1.000000 0.567964 0.692067 0.445488 0.401521 0.434629
0.000000 0.000000 1.000000 0.567964 0.692067 0.445488 0.250000 0.250000
0.353553 0.353553 0.000000 0.567964 0.692067 0.445488 0.334853 0.334853
0.707107 0.707107 -1.000000 0.567965 0.692067 0.445488 0.419706 0.419706
0.631339 0.769288 -1.000000 0.567965 0.692067 0.445488 0.401521 0.434629
0.420892 0.512859 -0.333333 0.567965 0.692067 0.445488 0.351014 0.373086
0.353553 0.353553 0.000000 0.567965 0.692067 0.445488 0.334853 0.334853
0.707107 0.707107 -1.000000 0.692067 0.567965 0.445488 0.419706 0.419706
0.353553 0.353553 0.000000 0.692067 0.567965 0.445488 0.334853 0.334853
0.512859 0.420892 -0.333333 0.692067 0.567965 0.445488 0.373086 0.351014
0.769288 0.631339 -1.000000 0.692067 0.567965 0.445488 0.434629 0.401521
0.000000 0.000000 1.000000 0.692067 0.567964 0.445488 0.250000 0.250000
0.415735 0.277785 0.000000 0.692067 0.567964 0.445488 0.349776 0.316668
0.512859 0.420892 -0.333333 0.692067 0.567964 0.445488 0.373086 0.351014
0.353553 0.353553 0.000000 0.692067 0.567964 0.445488 0.334853 0.334853
0.831470 0.555570 -1.000000 0.692067 0.567965 0.445488 0.449553 0.383337
0.415735 0.277785 0.000000 0.692067 0.567965 0.445488 0.349776 0.316668
0.831470 0.555570 -1.000000 0.789574 0.422035 0.445488 0.449553 0.383337
0.415735 0.277785 0.000000 0.789574 0.422035 0.445488 0.349776 0.316668
0.585116 0.312751 -0.333333 0.789574 0.422035 0.445488 0.390428 0.325060
0.877675 0.469127 -1.000000 0.789574 0.422035 0.445488 0.460642 0.362590
0.000000 0.000000 1.000000 0.789573 0.422035 0.445488 0.250000 0.250000
0.461940 0.191342 0.000000 0.789573 0.422035 0.445488 0.360866 0.295922
0.585116 0.312751 -0.333333 0.789573 0.422035 0.445488 0.390428 0.325060
0.415735 0.277785 0.000000 0.789573 0.422035 0.445488 0.349776 0.316668
0.923880 0.382683 -1.000000 0.789573 0.422036 0.445488 0.471731 0.341844
0.877675 0.469127 -1.000000 0.789573 0.422036 0.445488 0.460642 0.362590
0.585116 0.312751 -0.333333 0.789573 0.422036 0.445488 0.390428 0.325060
0.461940 0.191342 0.000000 0.789573 0.422036 0.445488 0.360866 0.295922
0.923880 0.382683 -1.000000 0.856737 0.259889 0.445488 0.471731 0.341844
0.461940 0.191342 0.000000 0.856737 0.259889 0.445488 0.360866 0.295922
0.634888 0.192591 -0.333333 0.856737 0.259889 0.445488 0.402373 0.296222
0.952333 0.288887 -1.000000 0.856737 0.259889 0.445488 0.478560 0.319333
0.000000 0.000000 1.000000 0.856737 0.259888 0.445488 0.250000 0.250000
0.490393 0.097545 0.000000 0.856737 0.259888 0.445488 0.367694 0.273411
0.634888 0.192591 -0.333333 0.856737 0.259888 0.445488 0.402373 0.296222
0.461940 0.191342 0.000000 0.856737 0.259888 0.445488 0.360866 0.295922
0.980785 0.195090 -1.000000 0.856737 0.259888 0.445488 0.485389 0.296822
0.952333 0.288887 -1.000000 0.856737 0.259888 0.445488 0.478560 0.319333
0.980785 0.195090 -1.000000 0.890977 0.087754 0.445488 0.485389 0.296822
0.490393 0.097545 0.000000 0.890977 0.087754 0.445488 0.367694 0.273411
0.660262 0.065030 -0.333333 0.890977 0.087754 0.445488 0.408463 0.265607
0.990393 0.097545 -1.000000 0.890977 0.087754 0.445488 0.487694 0.273411
0.000000 0.000000 1.000000 0.890977 0.087754 0.445488 0.250000 0.250000
0.500000 0.000000 0.000000 0.890977 0.087754 0.445488 0.370000 0.250000
1.000000 0.000000 -1.000000 0.890977 0.087754 0.445488 0.490000 0.250000
1.000000 0.000000 -1.000000 0.890977 -0.087754 0.445488 0.490000 0.250000
0.500000 0.000000 0.000000 0.890977 -0.087754 0.445488 0.370000 0.250000
0.660262 -0.065030 -0.333333 0.890977 -0.087754 0.445488 0.408463 0.234393
0.990393 -0.097545 -1.000000 0.890977 -0.087754 0.445488 0.487694 0.226589
0.000000 0.000000 1.000000 0.890977 -0.087754 0.445488 0.250000 0.250000
0.490393 -0.097545 0.000000 0.890977 -0.087754 0.445488 0.367694 0.226589
0.980785 -0.195090 -1.000000 0.890977 -0.087754 0.445488 0.485389 0.203178
0.980785 -0.195090 -1.000000 0.856737 -0.259888 0.445488 0.485389 0.203178
0.490393 -0.097545 0.000000 0.856737 -0.259888 0.445488 0.367694 0.226589
0.634888 -0.192591 -0.333333 0.856737 -0.259888 0.445488 0.402373 0.203778
0.952333 -0.288887 -1.000000 0.856737 -0.259888 0.445488 0.478560 0.180667
0.000000 0.000000 1.000000 0.856737 -0.259888 0.445488 0.250000 0.250000
0.461940 -0.191342 0.000000 0.856737 -0.259888 0.445488 0.360866 0.204078
0.923880 -0.382683 -1.000000 0.856737 -0.259888 0.445488 0.471731 0.158156
0.923880 -0.382683 -1.000000 0.789573 -0.422036 0.445488 0.471731 0.158156
0.461940 -0.191342 0.000000 0.789573 -0.422036 0.445488 0.360866 0.204078
0.585116 -0.312751 -0.333333 0.789573 -0.422036 0.445488 0.390428 0.174940
0.877675 -0.469127 -1.000000 0.789573 -0.422036 0.445488 0.460642 0.137410
0.000000 0.000000 1.000000 0.789574 -0.422035 0.445488 0.250000 0.250000
0.415735 -0.277785 0.000000 0.789574 -0.422035 0.445488 0.349776 0.183332
0.585116 -0.312751 -0.333333 0.789574 -0.422035 0.445488 0.390428 0.174940
0.461940 -0.191342 0.000000 0.789574 -0.422035 0.445488 0.360866 0.204078
0.831470 -0.555570 -1.000000 0.789573 -0.422035 0.445488 0.449553 0.116663
0.877675 -0.469127 -1.000000 0.789573 -0.422035 0.445488 0.460642 0.137410
0.585116 -0.312751 -0.333333 0.789573 -0.422035 0.445488 0.390428 0.174940
0.415735 -0.277785 0.000000 0.789573 -0.422035 0.445488 0.349776 0.183332
0.831470 -0.555570 -1.000000 0.692067 -0.567964 0.445488 0.449553 0.116663
0.415735 -0.277785 0.000000 0.692067 -0.567964 0.445488 0.349776 0.183332
0.512859 -0.420892 -0.333333 0.692067 -0.567964 0.445488 0.373086 0.148986
0.769288 -0.631339 -1.000000 0.692067 -0.567964 0.445488 0.434629 0.098479
0.000000 0.000000 1.000000 0.692067 -0.567964 0.445488 0.250000 0.250000
0.353553 -0.353553 0.000000 0.692067 -0.567964 0.445488 0.334853 0.165147
0.707107 -0.707107 -1.000000 0.692067 -0.567965 0.445488 0.419706 0.080294
0.769288 -0.631339 -1.000000 0.692067 -0.567965 0.445488 0.434629 0.098479
0.512859 -0.420892 -0.333333 0.692067 -0.567965 0.445488 0.373086 0.148986
0.353553 -0.353553 0.000000 0.692067 -0.567965 0.445488 0.334853 0.165147
0.707107 -0.707107 -1.000000 0.567965 -0.692067 0.445488 0.419706 0.080294
0.353553 -0.353553 0.000000 0.567965 -0.692067 0.445488 0.334853 0.165147
0.420892 -0.512859 -0.333333 0.567965 -0.692067 0.445488 0.351014 0.126914
0.631339 -0.769288 -1.000000 0.567965 -0.692067 0.445488 0.401521 0.065371
0.000000 0.000000 1.000000 0.567964 -0.692067 0.445488 0.250000 0.250000
0.277785 -0.415735 0.000000 0.567964 -0.692067 0.445488 0.316668 0.150224
0.420892 -0.512859 -0.333333 0.567964 -0.692067 0.445488 0.351014 0.126914
0.353553 -0.353553 0.000000 0.567964 -0.692067 0.445488 0.334853 0.165147
0.555570 -0.831470 -1.000000 0.567965 -0.692067 0.445488 0.383337 0.050447
0.277785 -0.415735 0.000000 0.567965 -0.692067 0.445488 0.316668 0.150224
0.555570 -0.831470 -1.000000 0.422036 -0.789573 0.445488 0.383337 0.050447
0.277785 -0.415735 0.000000 0.422036 -0.789573 0.445488 0.316668 0.150224
0.312751 -0.585117 -0.333333 0.422036 -0.789573 0.445488 0.325060 0.109572
0.469127 -0.877675 -1.000000 0.422036 -0.789573 0.445488 0.362590 0.039358
0.000000 0.000000 1.000000 0.422036 -0.789573 0.445488 0.250000 0.250000
0.191342 -0.461940 0.000000 0.422036 -0.789573 0.445488 0.295922 0.139134
0.382683 -0.923880 -1.000000 0.422036 -0.789573 0.445488 0.341844 0.028269
0.382683 -0.923880 -1.000000 0.259888 -0.856737 0.445488 0.341844 0.028269
0.191342 -0.461940 0.000000 0.259888 -0.856737 0.445488 0.295922 0.139134
0.192591 -0.634888 -0.333333 0.259888 -0.856737 0.445488 0.296222 0.097627
0.288887 -0.952333 -1.000000 0.259888 -0.856737 0.445488 0.319333 0.021440
0.000000 0.000000 1.000000 0.259888 -0.856737 0.445488 0.250000 0.250000
0.097545 -0.490393 0.000000 0.259888 -0.856737 0.445488 0.273411 0.132306
0.195090 -0.980785 -1.000000 0.259888 -0.856737 0.445488 0.296822 0.014612
0.195090 -0.980785 -1.000000 0.087753 -0.890977 0.445488 0.296822 0.014612
0.097545 -0.490393 0.000000 0.087753 -0.890977 0.445488 0.273411 0.132306
0.065030 -0.660262 -0.333333 0.087753 -0.890977 0.445488 0.265607 0.091537
0.097545 -0.990393 -1.000000 0.087753 -0.890977 0.445488 0.273411 0.012306
0.000000 0.000000 1.000000 0.087754 -0.890977 0.445488 0.250000 0.250000
-0.000000 -0.500000 0.000000 0.087754 -0.890977 0.445488 0.250000 0.130000
0.065030 -0.660262 -0.333333 0.087754 -0.890977 0.445488 0.265607 0.091537
0.097545 -0.490393 0.000000 0.087754 -0.890977 0.445488 0.273411 0.132306
-0.000000 -1.000000 -1.000000 0.087753 -0.890977 0.445488 0.250000 0.010000
-0.000000 -0.500000 0.000000 0.087753 -0.890977 0.445488 0.250000 0.130000
-0.000000 -1.000000 -1.000000 -0.087754 -0.890977 0.445488 0.250000 0.010000
-0.000000 -0.500000 0.000000 -0.087754 -0.890977 0.445488 0.250000 0.130000
-0.065030 -0.660262 -0.333333 -0.087754 -0.890977 0.445488 0.234393 0.091537
-0.097546 -0.990393 -1.000000 -0.087754 -0.890977 0.445488 0.226589 0.012306
0.000000 0.000000 1.000000 -0.087754 -0.890977 0.445488 0.250000 0.250000
-0.097545 -0.490393 0.000000 -0.087754 -0.890977 0.445488 0.226589 0.132306
-0.195091 -0.980785 -1.000000 -0.087754 -0.890977 0.445488 0.203178 0.014612
-0.195091 -0.980785 -1.000000 -0.259889 -0.856737 0.445488 0.203178 0.014612
-0.097545 -0.490393 0.000000 -0.259889 -0.856737 0.445488 0.226589 0.132306
-0.192592 -0.634888 -0.333333 -0.259889 -0.856737 0.445488 0.203778 0.097627
-0.288887 -0.952332 -1.000000 -0.259889 -0.856737 0.445488 0.180667 0.021440
0.000000 0.000000 1.000000 -0.259889 -0.856737 0.445488 0.250000 0.250000
-0.191342 -0.461940 0.000000 -0.259889 -0.856737 0.445488 0.204078 0.139134
-0.382684 -0.923879 -1.000000 -0.259888 -0.856737 0.445488 0.158156 0.028269
-0.288887 -0.952332 -1.000000 -0.259888 -0.856737 0.445488 0.180667 0.021440
-0.192592 -0.634888 -0.333333 -0.259888 -0.856737 0.445488 0.203778 0.097627
-0.191342 -0.461940 0.000000 -0.259888 -0.856737 0.445488 0.204078 0.139134
-0.382684 -0.923879 -1.000000 -0.422036 -0.789573 0.445488 0.158156 0.028269
-0.191342 -0.461940 0.000000 -0.422036 -0.789573 0.445488 0.204078 0.139134
-0.312752 -0.585116 -0.333333 -0.422036 -0.789573 0.445488 0.174940 0.109572
-0.469127 -0.877674 -1.000000 -0.422036 -0.789573 0.445488 0.137409 0.039358
0.000000 0.000000 1.000000 -0.422036 -0.789573 0.445488 0.250000 0.250000
-0.277785 -0.415735 0.000000 -0.422036 -0.789573 0.445488 0.183332 0.150224
-0.555571 -0.831469 -1.000000 -0.422036 -0.789573 0.445488 0.116663 0.050447
-0.555571 -0.831469 -1.000000 -0.567965 -0.692067 0.445488 0.116663 0.050447
-0.277785 -0.415735 0.000000 -0.567965 -0.692067 0.445488 0.183332 0.150224
-0.420893 -0.512859 -0.333333 -0.567965 -0.692067 0.445488 0.148986 0.126914
-0.631339 -0.769288 -1.000000 -0.567965 -0.692067 0.445488 0.098479 0.065371
0.000000 0.000000 1.000000 -0.567965 -0.692066 0.445488 0.250000 0.250000
-0.353554 -0.353553 0.000000 -0.567965 -0.692066 0.445488 0.165147 0.165147
-0.420893 -0.512859 -0.333333 -0.567965 -0.692066 0.445488 0.148986 0.126914
-0.277785 -0.415735 0.000000 -0.567965 -0.692066 0.445488 0.183332 0.150224
-0.707107 -0.707106 -1.000000 -0.567965 -0.692066 0.445488 0.080294 0.080294
-0.631339 -0.769288 -1.000000 -0.567965 -0.692066 0.445488 0.098479 0.065371
-0.707107 -0.707106 -1.000000 -0.692067 -0.567964 0.445488 0.080294 0.080294
-0.353554 -0.353553 0.000000 -0.692067 -0.567964 0.445488 0.165147 0.165147
-0.512859 -0.420892 -0.333333 -0.692067 -0.567964 0.445488 0.126914 0.148986
-0.769289 -0.631338 -1.000000 -0.692067 -0.567964 0.445488 0.065371 0.098479
0.000000 0.000000 1.000000 -0.692067 -0.567964 0.445488 0.250000 0.250000
-0.415735 -0.277785 0.000000 -0.692067 -0.567964 0.445488 0.150224 0.183332
-0.831470 -0.555570 -1.000000 -0.692067 -0.567964 0.445488 0.050447 0.116663
-0.831470 -0.555570 -1.000000 -0.789574 -0.422035 0.445488 0.050447 0.116663
-0.415735 -0.277785 0.000000 -0.789574 -0.422035 0.445488 0.150224 0.183332
-0.585117 -0.312751 -0.333333 -0.789574 -0.422035 0.445488 0.109572 0.174940
-0.877675 -0.469126 -1.000000 -0.789574 -0.422035 0.445488 0.039358 0.137410
0.000000 0.000000 1.000000 -0.789574 -0.422035 0.445488 0.250000 0.250000
-0.461940 -0.191341 0.000000 -0.789574 -0.422035 0.445488 0.139134 0.204078
-0.923880 -0.382683 -1.000000 -0.789574 -0.422035 0.445488 0.028269 0.158156
-0.923880 -0.382683 -1.000000 -0.856737 -0.259887 0.445488 0.028269 0.158156
-0.461940 -0.191341 0.000000 -0.856737 -0.259887 0.445488 0.139134 0.204078
-0.634889 -0.192591 -0.333333 -0.856737 -0.259887 0.445488 0.097627 0.203778
-0.952333 -0.288886 -1.000000 -0.856737 -0.259887 0.445488 0.021440 0.180667
0.000000 0.000000 1.000000 -0.856737 -0.259888 0.445488 0.250000 0.250000
-0.490393 -0.097545 0.000000 -0.856737 -0.259888 0.445488 0.132306 0.226589
-0.634889 -0.192591 -0.333333 -0.856737 -0.259888 0.445488 0.097627 0.203778
-0.461940 -0.191341 0.000000 -0.856737 -0.259888 0.445488 0.139134 0.204078
-0.980786 -0.195089 -1.000000 -0.856737 -0.259887 0.445488 0.014611 0.203179
-0.490393 -0.097545 0.000000 -0.856737 -0.259887 0.445488 0.132306 0.226589
-0.980786 -0.195089 -1.000000 -0.890977 -0.087752 0.445488 0.014611 0.203179
-0.490393 -0.097545 0.000000 -0.890977 -0.087752 0.445488 0.132306 0.226589
-0.660262 -0.065030 -0.333333 -0.890977 -0.087752 0.445488 0.091537 0.234393
-0.990393 -0.097544 -1.000000 -0.890977 -0.087752 0.445488 0.012306 0.226589
0.000000 0.000000 1.000000 -0.890977 -0.087753 0.445488 0.250000 0.250000
-0.500000 0.000000 0.000000 -0.890977 -0.087753 0.445488 0.130000 0.250000
-0.660262 -0.065030 -0.333333 -0.890977 -0.087753 0.445488 0.091537 0.234393
-0.490393 -0.097545 0.000000 -0.890977 -0.087753 0.445488 0.132306 0.226589
-1.000000 0.000001 -1.000000 -0.890977 -0.087753 0.445488 0.010000 0.250000
-0.990393 -0.097544 -1.000000 -0.890977 -0.087753 0.445488 0.012306 0.226589
-1.000000 0.000001 -1.000000 -0.890977 0.087754 0.445488 0.010000 0.250000
-0.500000 0.000000 0.000000 -0.890977 0.087754 0.445488 0.130000 0.250000
-0.660262 0.065031 -0.333333 -0.890977 0.087754 0.445488 0.091537 0.265607
-0.990393 0.097546 -1.000000 -0.890977 0.087754 0.445488 0.012306 0.273411
0.000000 0.000000 1.000000 -0.890977 0.087754 0.445488 0.250000 0.250000
-0.490393 0.097546 0.000000 -0.890977 0.087754 0.445488 0.132306 0.273411
-0.980785 0.195091 -1.000000 -0.890977 0.087755 0.445488 0.014612 0.296822
-0.990393 0.097546 -1.000000 -0.890977 0.087755 0.445488 0.012306 0.273411
-0.660262 0.065031 -0.333333 -0.890977 0.087755 0.445488 0.091537 0.265607
-0.490393 0.097546 0.000000 -0.890977 0.087755 0.445488 0.132306 0.273411
-0.980785 0.195091 -1.000000 -0.856737 0.259889 0.445488 0.014612 0.296822
-0.490393 0.097546 0.000000 -0.856737 0.259889 0.445488 0.132306 0.273411
-0.634888 0.192592 -0.333333 -0.856737 0.259889 0.445488 0.097627 0.296222
-0.952332 0.288888 -1.000000 -0.856737 0.259889 0.445488 0.021440 0.319333
0.000000 0.000000 1.000000 -0.856737 0.259889 0.445488 0.250000 0.250000
-0.461940 0.191342 0.000000 -0.856737 0.259889 0.445488 0.139135 0.295922
-0.923879 0.382685 -1.000000 -0.856737 0.259889 0.445488 0.028269 0.341844
-0.923879 0.382685 -1.000000 -0.789573 0.422037 0.445488 0.028269 0.341844
-0.461940 0.191342 0.000000 -0.789573 0.422037 0.445488 0.139135 0.295922
-0.585116 0.312752 -0.333333 -0.789573 0.422037 0.445488 0.109572 0.325060
-0.877674 0.469128 -1.000000 -0.789573 0.422037 0.445488 0.039358 0.362591
0.000000 0.000000 1.000000 -0.789573 0.422037 0.445488 0.250000 0.250000
-0.415735 0.277786 0.000000 -0.789573 0.422037 0.445488 0.150224 0.316669
-0.585116 0.312752 -0.333333 -0.789573 0.422037 0.445488 0.109572 0.325061
-0.831469 0.555571 -1.000000 -0.789573 0.422037 0.445488 0.050447 0.383337
-0.831469 0.555571 -1.000000 -0.692066 0.567966 0.445488 0.050447 0.383337
-0.415735 0.277786 0.000000 -0.692066 0.567966 0.445488 0.150224 0.316669
-0.512858 0.420893 -0.333333 -0.692066 0.567966 0.445488 0.126914 0.351014
-0.769288 0.631340 -1.000000 -0.692066 0.567966 0.445488 0.065371 0.401522
0.000000 0.000000 1.000000 -0.692066 0.567966 0.445488 0.250000 0.250000
-0.353553 0.353554 0.000000 -0.692066 0.567966 0.445488 0.165147 0.334853
-0.707106 0.707108 -1.000000 -0.692066 0.567966 0.445488 0.080295 0.419706
-0.707106 0.707108 -1.000000 -0.567964 0.692067 0.445488 0.080295 0.419706
-0.353553 0.353554 0.000000 -0.567964 0.692067 0.445488 0.165147 0.334853
-0.420892 0.512859 -0.333333 -0.567964 0.692067 0.445488 0.148986 0.373086
-0.631338 0.769289 -1.000000 -0.567964 0.692067 0.445488 0.098479 0.434629
0.000000 0.000000 1.000000 -0.567964 0.692067 0.445488 0.250000 0.250000
-0.277785 0.415735 0.000000 -0.567964 0.692067 0.445488 0.183332 0.349776
-0.555569 0.831470 -1.000000 -0.567964 0.692068 0.445488 0.116663 0.449553
-0.631338 0.769289 -1.000000 -0.567964 0.692068 0.445488 0.098479 0.434629
-0.420892 0.512859 -0.333333 -0.567964 0.692068 0.445488 0.148986 0.373086
-0.277785 0.415735 0.000000 -0.567964 0.692068 0.445488 0.183332 0.349776
-0.555569 0.831470 -1.000000 -0.422035 0.789574 0.445488 0.116663 0.449553
-0.277785 0.415735 0.000000 -0.422035 0.789574 0.445488 0.183332 0.349776
-0.312750 0.585117 -0.333333 -0.422035 0.789574 0.445488 0.174940 0.390428
-0.469126 0.877675 -1.000000 -0.422035 0.789574 0.445488 0.137410 0.460642
0.000000 0.000000 1.000000 -0.422035 0.789574 0.445488 0.250000 0.250000
-0.191341 0.461940 0.000000 -0.422035 0.789574 0.445488 0.204078 0.360866
-0.382682 0.923880 -1.000000 -0.422035 0.789574 0.445488 0.158156 0.471731
-0.382682 0.923880 -1.000000 -0.259887 0.856737 0.445488 0.158156 0.471731
-0.191341 0.461940 0.000000 -0.259887 0.856737 0.445488 0.204078 0.360866
-0.192590 0.634889 -0.333333 -0.259887 0.856737 0.445488 0.203778 0.402373
-0.288886 0.952333 -1.000000 -0.259887 0.856737 0.445488 0.180668 0.478560
0.000000 0.000000 1.000000 -0.259887 0.856737 0.445488 0.250000 0.250000
-0.097544 0.490393 0.000000 -0.259887 0.856737 0.445488 0.226589 0.367694
-0.195089 0.980786 -1.000000 -0.259887 0.856737 0.445488 0.203179 0.485389
-0.195089 0.980786 -1.000000 -0.087753 0.890977 0.445488 0.203179 0.485389
-0.097544 0.490393 0.000000 -0.087753 0.890977 0.445488 0.226589 0.367694
-0.065030 0.660262 -0.333333 -0.087753 0.890977 0.445488 0.234393 0.408463
-0.097544 0.990393 -1.000000 -0.087753 0.890977 0.445488 0.226589 0.487694
0.000000 0.000000 1.000000 -0.087753 0.890977 0.445488 0.250000 0.250000
0.000000 0.500000 0.000000 -0.087753 0.890977 0.445488 0.250000 0.370000
0.000000 1.000000 -1.000000 -0.087753 0.890977 0.445488 0.250000 0.490000
0.000000 1.000000 -1.000000 0.000000 0.000000 -1.000000 0.750000 0.490000
0.097545 0.990393 -1.000000 0.000000 0.000000 -1.000000 0.773411 0.487694
-0.000000 0.000001 -1.000000 0.000000 0.000000 -1.000000 0.750000 0.250000
-0.097544 0.990393 -1.000000 0.000000 0.000000 -1.000000 0.726589 0.487694
0.195090 0.980785 -1.000000 0.000000 0.000000 -1.000000 0.796822 0.485389
0.288887 0.952333 -1.000000 0.000000 0.000000 -1.000000 0.819333 0.478560
0.382684 0.923880 -1.000000 0.000000 0.000000 -1.000000 0.841844 0.471731
0.469127 0.877675 -1.000000 0.000000 0.000000 -1.000000 0.862591 0.460642
0.555570 0.831470 -1.000000 0.000000 0.000000 -1.000000 0.883337 0.449553
0.631339 0.769288 -1.000000 0.000000 0.000000 -1.000000 0.901521 0.434629
0.707107 0.707107 -1.000000 0.000000 0.000000 -1.000000 0.919706 0.419706
0.769288 0.631339 -1.000000 0.000000 0.000000 -1.000000 0.934629 0.401521
0.831470 0.555570 -1.000000 0.000000 0.000000 -1.000000 0.949553 0.383337
0.877675 0.469127 -1.000000 0.000000 0.000000 -1.000000 0.960642 0.362590
0.923880 0.382683 -1.000000 0.000000 0.000000 -1.000000 0.971731 0.341844
0.952333 0.288887 -1.000000 0.000000 0.000000 -1.000000 0.978560 0.319333
0.980785 0.195090 -1.000000 0.000000 0.000000 -1.000000 0.985389 0.296822
0.990393 0.097545 -1.000000 0.000000 0.000000 -1.000000 0.987694 0.273411
1.000000 0.000000 -1.000000 0.000000 0.000000 -1.000000 0.990000 0.250000
0.990393 -0.097545 -1.000000 0.000000 0.000000 -1.000000 0.987694 0.226589
0.980785 -0.195090 -1.000000 0.000000 -0.000000 -1.000000 0.985389 0.203178
0.952333 -0.288887 -1.000000 0.000000 -0.000000 -1.000000 0.978560 0.180667
0.923880 -0.382683 -1.000000 0.000000 -0.000000 -1.000000 0.971731 0.158156
0.877675 -0.469127 -1.000000 0.000000 -0.000000 -1.000000 0.960642 0.137410
0.831470 -0.555570 -1.000000 0.000000 -0.000000 -1.000000 0.949553 0.116663
0.769288 -0.631339 -1.000000 0.000000 -0.000000 -1.000000 0.934629 0.098479
0.707107 -0.707107 -1.000000 0.000000 -0.000000 -1.000000 0.919706 0.080294
0.631339 -0.769288 -1.000000 0.000000 -0.000000 -1.000000 0.901521 0.065371
0.555570 -0.831470 -1.000000 0.000000 -0.000000 -1.000000 0.883337 0.050447
0.469127 -0.877675 -1.000000 0.000000 -0.000000 -1.000000 0.862591 0.039358
0.382683 -0.923880 -1.000000 0.000000 -0.000000 -1.000000 0.841844 0.028269
0.288887 -0.952333 -1.000000 0.000000 -0.000000 -1.000000 0.819333 0.021440
0.195090 -0.980785 -1.000000 0.000000 -0.000000 -1.000000 0.796822 0.014612
0.097545 -0.990393 -1.000000 0.000000 -0.000000 -1.000000 0.773411 0.012306
-0.000000 -1.000000 -1.000000 -0.000000 -0.000000 -1.000000 0.750000 0.010000
-0.097546 -0.990393 -1.000000 -0.000000 -0.000000 -1.000000 0.726589 0.012306
-0.195091 -0.980785 -1.000000 -0.000000 -0.000000 -1.000000 0.703178 0.014612
-0.288887 -0.952332 -1.000000 -0.000000 -0.000000 -1.000000 0.680667 0.021440
-0.382684 -0.923879 -1.000000 -0.000000 -0.000000 -1.000000 0.658156 0.028269
-0.469127 -0.877674 -1.000000 -0.000000 -0.000000 -1.000000 0.637410 0.039358
-0.555571 -0.831469 -1.000000 -0.000000 -0.000000 -1.000000 0.616663 0.050447
-0.631339 -0.769288 -1.000000 -0.000000 -0.000000 -1.000000 0.598479 0.065371
-0.707107 -0.707106 -1.000000 -0.000000 -0.000000 -1.000000 0.580294 0.080294
-0.769289 -0.631338 -1.000000 -0.000000 -0.000000 -1.000000 0.565371 0.098479
-0.831470 -0.555570 -1.000000 -0.000000 -0.000000 -1.000000 0.550447 0.116663
-0.877675 -0.469126 -1.000000 -0.000000 -0.000000 -1.000000 0.539358 0.137410
-0.923880 -0.382683 -1.000000 -0.000000 -0.000000 -1.000000 0.528269 0.158156
-0.952333 -0.288886 -1.000000 -0.000000 -0.000000 -1.000000 0.521440 0.180667
-0.980786 -0.195089 -1.000000 -0.000000 -0.000000 -1.000000 0.514612 0.203179
-0.990393 -0.097544 -1.000000 -0.000000 -0.000000 -1.000000 0.512306 0.226589
-1.000000 0.000001 -1.000000 -0.000000 0.000000 -1.000000 0.510000 0.250000
-0.990393 0.097546 -1.000000 -0.000000 0.000000 -1.000000 0.512306 0.273411
-0.980785 0.195091 -1.000000 -0.000000 0.000000 -1.000000 0.514612 0.296822
-0.952332 0.288888 -1.000000 -0.000000 0.000000 -1.000000 0.521440 0.319333
-0.923879 0.382685 -1.000000 -0.000000 0.000000 -1.000000 0.528269 0.341844
-0.877674 0.469128 -1.000000 -0.000000 0.000000 -1.000000 0.539358 0.362591
-0.831469 0.555571 -1.000000 -0.000000 0.000000 -1.000000 0.550448 0.383337
-0.769288 0.631340 -1.000000 -0.000000 0.000000 -1.000000 0.565371 0.401522
-0.707106 0.707108 -1.000000 -0.000000 0.000000 -1.000000 0.580295 0.419706
-0.631338 0.769289 -1.000000 -0.000000 0.000000 -1.000000 0.598479 0.434629
-0.555569 0.831470 -1.000000 -0.000000 0.000000 -1.000000 0.616663 0.449553
-0.469126 0.877675 -1.000000 -0.000000 0.000000 -1.000000 0.637410 0.460642
-0.382682 0.923880 -1.000000 -0.000000 0.000000 -1.000000 0.658156 0.471731
-0.288886 0.952333 -1.000000 -0.000000 0.000000 -1.000000 0.680668 0.478560
-0.195089 0.980786 -1.000000 -0.000000 0.000000 -1.000000 0.703179 0.485389
4 0 1 2 3
4 4 5 2 1
4 6 3 2 5
4 7 8 9 10
4 11 12 9 8
4 13 10 9 12
4 14 15 16 17
4 18 19 16 15
4 20 21 22 23
4 24 25 26 27
4 28 29 26 25
4 30 31 32 33
4 34 35 36 37
4 38 39 40 41
4 42 37 36 43
4 44 45 46 47
4 48 49 50 51
4 52 53 54 55
4 56 57 58 59
4 60 61 62 63
4 64 65 62 61
4 66 67 68 69
4 70 71 68 67
4 72 69 68 71
4 73 74 75 76
4 77 78 75 74
4 79 76 75 78
4 80 81 82 83
4 84 85 82 81
4 86 83 82 85
4 87 88 89 90
4 91 92 93 94
4 95 96 97 98
4 99 100 101 102
4 103 104 101 100
4 105 106 107 108
4 109 110 111 112
4 113 114 115 116
4 117 112 111 118
4 119 120 121 122
4 123 124 121 120
4 125 122 121 124
4 126 127 128 129
4 130 131 128 127
4 132 129 128 131
4 133 134 135 136
4 137 138 139 140
4 141 136 135 142
4 143 144 145 146
4 147 148 145 144
4 149 146 145 148
4 150 151 152 153
4 154 155 152 151
4 156 157 158 159
4 160 161 162 163
4 164 165 162 161
4 166 163 162 165
4 167 168 169 170
4 171 172 173 174
4 175 176 173 172
4 177 178 179 180
4 181 182 179 178
4 183 180 179 182
4 184 185 186 187
4 188 189 186 185
4 190 187 186 189
4 191 192 193 194
4 195 196 197 198
4 199 194 193 200
4 201 202 203 204
4 205 206 207 208
4 209 210 207 206
4 211 212 213 214
4 215 216 213 212
4 217 218 219 220
4 221 222 223 224
4 225 226 223 222
4 227 224 223 226
4 228 229 230 231
4 232 233 234 229
4 235 231 230 233
4 236 237 238 239
4 240 241 238 237
4 242 239 238 241
4 243 244 245 246
4 247 248 245 244
4 249 250 251 252
4 253 254 255 256
4 257 258 255 254
4 259 256 255 258
4 260 261 262 263
4 264 265 262 261
4 266 263 262 265
4 267 268 269 270
4 271 272 269 268
4 273 270 269 272
4 274 275 276 277
4 278 279 276 275
4 280 281 276 279
4 282 283 276 281
4 284 285 276 283
4 286 287 276 285
4 288 289 276 287
4 290 291 276 289
4 292 293 276 291
4 294 295 276 293
4 296 297 276 295
4 298 299 276 297
4 300 301 276 299
4 302 303 276 301
4 304 305 276 303
4 306 307 276 305
4 308 309 276 307
4 310 311 276 309
4 312 313 276 311
4 314 315 276 313
4 316 317 276 315
4 318 319 276 317
4 320 321 276 319
4 322 323 276 321
4 324 325 276 323
4 326 327 276 325
4 328 329 276 327
4 330 331 276 329
4 332 333 276 331
4 334 335 276 333
4 336 337 276 335
4 338 277 276 337
