ply
format ascii 1.0
comment Created by Blender 2.81 (sub 16) - www.blender.org, source file: ''
element vertex 54
property float x
property float y
property float z
property float nx
property float ny
property float nz
property float s
property float t
element face 24
property list uchar uint vertex_indices
end_header
-1.000000 -1.000000 -1.000000 -1.000000 -0.000000 0.000000 0.375000 0.000000
-1.000000 -1.000000 0.000000 -1.000000 -0.000000 0.000000 0.500000 0.000000
-1.000000 -0.000000 0.000000 -1.000000 -0.000000 0.000000 0.500000 0.125000
-1.000000 0.000000 -1.000000 -1.000000 -0.000000 0.000000 0.375000 0.125000
-1.000000 -1.000000 1.000000 -1.000000 -0.000000 0.000000 0.625000 0.000000
-1.000000 0.000000 1.000000 -1.000000 -0.000000 0.000000 0.625000 0.125000
-1.000000 1.000000 1.000000 -1.000000 -0.000000 0.000000 0.625000 0.250000
-1.000000 1.000000 0.000000 -1.000000 -0.000000 0.000000 0.500000 0.250000
-1.000000 1.000000 -1.000000 -1.000000 -0.000000 0.000000 0.375000 0.250000
-1.000000 1.000000 -1.000000 0.000000 1.000000 0.000000 0.375000 0.250000
-1.000000 1.000000 0.000000 0.000000 1.000000 0.000000 0.500000 0.250000
0.000000 1.000000 0.000000 0.000000 1.000000 0.000000 0.500000 0.375000
0.000000 1.000000 -1.000000 0.000000 1.000000 0.000000 0.375000 0.375000
-1.000000 1.000000 1.000000 0.000000 1.000000 -0.000000 0.625000 0.250000
0.000000 1.000000 1.000000 0.000000 1.000000 -0.000000 0.625000 0.375000
1.000000 1.000000 1.000000 -0.000000 1.000000 -0.000000 0.625000 0.500000
1.000000 1.000000 0.000000 -0.000000 1.000000 -0.000000 0.500000 0.500000
1.000000 1.000000 -1.000000 -0.000000 1.000000 0.000000 0.375000 0.500000
1.000000 1.000000 -1.000000 1.000000 -0.000000 0.000000 0.375000 0.500000
1.000000 1.000000 0.000000 1.000000 -0.000000 0.000000 0.500000 0.500000
1.000000 -0.000000 0.000000 1.000000 -0.000000 0.000000 0.500000 0.625000
1.000000 0.000000 -1.000000 1.000000 -0.000000 0.000000 0.375000 0.625000
1.000000 1.000000 1.000000 1.000000 -0.000000 -0.000000 0.625000 0.500000
1.000000 0.000000 1.000000 1.000000 -0.000000 -0.000000 0.625000 0.625000
1.000000 -1.000000 1.000000 1.000000 0.000000 -0.000000 0.625000 0.750000
1.000000 -1.000000 0.000000 1.000000 0.000000 -0.000000 0.500000 0.750000
1.000000 -1.000000 -1.000000 1.000000 0.000000 0.000000 0.375000 0.750000
1.000000 -1.000000 -1.000000 -0.000000 -1.000000 0.000000 0.375000 0.750000
1.000000 -1.000000 0.000000 -0.000000 -1.000000 0.000000 0.500000 0.750000
-0.000000 -1.000000 0.000000 -0.000000 -1.000000 0.000000 0.500000 0.875000
0.000000 -1.000000 -1.000000 -0.000000 -1.000000 0.000000 0.375000 0.875000
1.000000 -1.000000 1.000000 -0.000000 -1.000000 -0.000000 0.625000 0.750000
0.000000 -1.000000 1.000000 -0.000000 -1.000000 -0.000000 0.625000 0.875000
-1.000000 -1.000000 1.000000 0.000000 -1.000000 -0.000000 0.625000 1.000000
-1.000000 -1.000000 0.000000 0.000000 -1.000000 -0.000000 0.500000 1.000000
-1.000000 -1.000000 -1.000000 0.000000 -1.000000 0.000000 0.375000 1.000000
-1.000000 1.000000 -1.000000 0.000000 -0.000000 -1.000000 0.125000 0.500000
0.000000 1.000000 -1.000000 0.000000 -0.000000 -1.000000 0.250000 0.500000
0.000000 -0.000000 -1.000000 0.000000 -0.000000 -1.000000 0.250000 0.625000
-1.000000 0.000000 -1.000000 0.000000 -0.000000 -1.000000 0.125000 0.625000
1.000000 1.000000 -1.000000 -0.000000 -0.000000 -1.000000 0.375000 0.500000
1.000000 0.000000 -1.000000 -0.000000 -0.000000 -1.000000 0.375000 0.625000
1.000000 -1.000000 -1.000000 -0.000000 0.000000 -1.000000 0.375000 0.750000
0.000000 -1.000000 -1.000000 -0.000000 0.000000 -1.000000 0.250000 0.750000
-1.000000 -1.000000 -1.000000 0.000000 0.000000 -1.000000 0.125000 0.750000
1.000000 1.000000 1.000000 -0.000000 -0.000000 1.000000 0.625000 0.500000
0.000000 1.000000 1.000000 -0.000000 -0.000000 1.000000 0.750000 0.500000
0.000000 -0.000000 1.000000 -0.000000 -0.000000 1.000000 0.750000 0.625000
1.000000 0.000000 1.000000 -0.000000 -0.000000 1.000000 0.625000 0.625000
-1.000000 1.000000 1.000000 0.000000 -0.000000 1.000000 0.875000 0.500000
-1.000000 0.000000 1.000000 0.000000 -0.000000 1.000000 0.875000 0.625000
-1.000000 -1.000000 1.000000 0.000000 0.000000 1.000000 0.875000 0.750000
0.000000 -1.000000 1.000000 0.000000 0.000000 1.000000 0.750000 0.750000
1.000000 -1.000000 1.000000 -0.000000 0.000000 1.000000 0.625000 0.750000
4 0 1 2 3
4 1 4 5 2
4 2 5 6 7
4 3 2 7 8
4 9 10 11 12
4 10 13 14 11
4 11 14 15 16
4 12 11 16 17
4 18 19 20 21
4 19 22 23 20
4 20 23 24 25
4 21 20 25 26
4 27 28 29 30
4 28 31 32 29
4 29 32 33 34
4 30 29 34 35
4 36 37 38 39
4 37 40 41 38
4 38 41 42 43
4 39 38 43 44
4 45 46 47 48
4 46 49 50 47
4 47 50 51 52
4 48 47 52 53
