ply
format ascii 1.0
comment Created by Blender 2.81 (sub 16) - www.blender.org, source file: ''
element vertex 481
property float x
property float y
property float z
property float nx
property float ny
property float nz
property float s
property float t
element face 192
property list uchar uint vertex_indices
end_header
0.000000 1.000000 -1.000000 0.098018 0.995185 0.000000 1.000000 0.500000
0.000000 1.000000 0.000000 0.098018 0.995185 0.000000 1.000000 0.750000
0.097545 0.990393 0.000000 0.098018 0.995185 0.000000 0.984375 0.750000
0.097545 0.990393 -1.000000 0.098018 0.995185 0.000000 0.984375 0.500000
0.000000 1.000000 1.000000 0.098018 0.995185 -0.000000 1.000000 1.000000
0.097545 0.990393 1.000000 0.098018 0.995185 -0.000000 0.984375 1.000000
0.097545 0.990393 0.000000 0.098017 0.995185 -0.000000 0.984375 0.750000
0.097545 0.990393 1.000000 0.098017 0.995185 -0.000000 0.984375 1.000000
0.195090 0.980785 1.000000 0.098017 0.995185 -0.000000 0.968750 1.000000
0.195090 0.980785 0.000000 0.098017 0.995185 -0.000000 0.968750 0.750000
0.097545 0.990393 -1.000000 0.098017 0.995185 0.000000 0.984375 0.500000
0.195090 0.980785 -1.000000 0.098017 0.995185 0.000000 0.968750 0.500000
0.195090 0.980785 -1.000000 0.290285 0.956940 0.000000 0.968750 0.500000
0.195090 0.980785 0.000000 0.290285 0.956940 0.000000 0.968750 0.750000
0.288887 0.952332 0.000000 0.290285 0.956940 0.000000 0.953125 0.750000
0.288887 0.952333 -1.000000 0.290285 0.956940 0.000000 0.953125 0.500000
0.195090 0.980785 1.000000 0.290285 0.956940 -0.000000 0.968750 1.000000
0.288887 0.952333 1.000000 0.290285 0.956940 -0.000000 0.953125 1.000000
0.288887 0.952332 0.000000 0.290284 0.956941 -0.000000 0.953125 0.750000
0.288887 0.952333 1.000000 0.290284 0.956941 -0.000000 0.953125 1.000000
0.382684 0.923880 1.000000 0.290284 0.956941 -0.000000 0.937500 1.000000
0.382683 0.923880 0.000000 0.290284 0.956941 -0.000000 0.937500 0.750000
0.288887 0.952333 -1.000000 0.290284 0.956941 0.000000 0.953125 0.500000
0.382684 0.923880 -1.000000 0.290284 0.956941 0.000000 0.937500 0.500000
0.382684 0.923880 -1.000000 0.471397 0.881921 0.000000 0.937500 0.500000
0.382683 0.923880 0.000000 0.471397 0.881921 0.000000 0.937500 0.750000
0.469127 0.877675 0.000000 0.471397 0.881921 0.000000 0.921875 0.750000
0.469127 0.877675 -1.000000 0.471397 0.881921 0.000000 0.921875 0.500000
0.382684 0.923880 1.000000 0.471397 0.881921 -0.000000 0.937500 1.000000
0.469127 0.877675 1.000000 0.471397 0.881921 -0.000000 0.921875 1.000000
0.469127 0.877675 0.000000 0.471396 0.881921 -0.000000 0.921875 0.750000
0.469127 0.877675 1.000000 0.471396 0.881921 -0.000000 0.921875 1.000000
0.555570 0.831470 1.000000 0.471396 0.881921 -0.000000 0.906250 1.000000
0.555570 0.831470 0.000000 0.471396 0.881921 -0.000000 0.906250 0.750000
0.469127 0.877675 -1.000000 0.471396 0.881921 0.000000 0.921875 0.500000
0.555570 0.831470 -1.000000 0.471396 0.881921 0.000000 0.906250 0.500000
0.555570 0.831470 -1.000000 0.634393 0.773010 -0.000000 0.906250 0.500000
0.555570 0.831470 0.000000 0.634393 0.773010 -0.000000 0.906250 0.750000
0.631339 0.769288 0.000000 0.634393 0.773010 -0.000000 0.890625 0.750000
0.631339 0.769288 -1.000000 0.634393 0.773010 -0.000000 0.890625 0.500000
0.555570 0.831470 1.000000 0.634393 0.773010 0.000000 0.906250 1.000000
0.631339 0.769288 1.000000 0.634393 0.773010 0.000000 0.890625 1.000000
0.707107 0.707107 1.000000 0.634393 0.773010 0.000000 0.875000 1.000000
0.707107 0.707107 0.000000 0.634393 0.773010 0.000000 0.875000 0.750000
0.707107 0.707107 -1.000000 0.634393 0.773010 -0.000000 0.875000 0.500000
0.707107 0.707107 -1.000000 0.773011 0.634393 0.000000 0.875000 0.500000
0.707107 0.707107 0.000000 0.773011 0.634393 0.000000 0.875000 0.750000
0.769288 0.631338 0.000000 0.773011 0.634393 0.000000 0.859375 0.750000
0.769288 0.631339 -1.000000 0.773011 0.634393 0.000000 0.859375 0.500000
0.707107 0.707107 1.000000 0.773011 0.634393 -0.000000 0.875000 1.000000
0.769288 0.631339 1.000000 0.773011 0.634393 -0.000000 0.859375 1.000000
0.769288 0.631338 0.000000 0.773010 0.634394 -0.000000 0.859375 0.750000
0.769288 0.631339 1.000000 0.773010 0.634394 -0.000000 0.859375 1.000000
0.831470 0.555570 1.000000 0.773010 0.634394 -0.000000 0.843750 1.000000
0.831470 0.555570 0.000000 0.773010 0.634394 -0.000000 0.843750 0.750000
0.769288 0.631339 -1.000000 0.773010 0.634394 0.000000 0.859375 0.500000
0.831470 0.555570 -1.000000 0.773010 0.634394 0.000000 0.843750 0.500000
0.831470 0.555570 -1.000000 0.881922 0.471396 0.000000 0.843750 0.500000
0.831470 0.555570 0.000000 0.881922 0.471396 0.000000 0.843750 0.750000
0.877675 0.469127 0.000000 0.881922 0.471396 0.000000 0.828125 0.750000
0.877675 0.469127 -1.000000 0.881922 0.471396 0.000000 0.828125 0.500000
0.831470 0.555570 1.000000 0.881922 0.471396 -0.000000 0.843750 1.000000
0.877675 0.469127 1.000000 0.881922 0.471396 -0.000000 0.828125 1.000000
0.877675 0.469127 0.000000 0.881921 0.471397 -0.000000 0.828125 0.750000
0.877675 0.469127 1.000000 0.881921 0.471397 -0.000000 0.828125 1.000000
0.923880 0.382683 1.000000 0.881921 0.471397 -0.000000 0.812500 1.000000
0.923880 0.382683 0.000000 0.881921 0.471397 -0.000000 0.812500 0.750000
0.877675 0.469127 -1.000000 0.881921 0.471397 0.000000 0.828125 0.500000
0.923880 0.382683 -1.000000 0.881921 0.471397 0.000000 0.812500 0.500000
0.923880 0.382683 -1.000000 0.956941 0.290284 0.000000 0.812500 0.500000
0.923880 0.382683 0.000000 0.956941 0.290284 0.000000 0.812500 0.750000
0.952332 0.288887 0.000000 0.956941 0.290284 0.000000 0.796875 0.750000
0.952333 0.288887 -1.000000 0.956941 0.290284 0.000000 0.796875 0.500000
0.923880 0.382683 1.000000 0.956941 0.290284 -0.000000 0.812500 1.000000
0.952333 0.288887 1.000000 0.956941 0.290284 -0.000000 0.796875 1.000000
0.952332 0.288887 0.000000 0.956940 0.290285 -0.000000 0.796875 0.750000
0.952333 0.288887 1.000000 0.956940 0.290285 -0.000000 0.796875 1.000000
0.980785 0.195090 1.000000 0.956940 0.290285 -0.000000 0.781250 1.000000
0.980785 0.195090 0.000000 0.956940 0.290285 -0.000000 0.781250 0.750000
0.952333 0.288887 -1.000000 0.956940 0.290285 0.000000 0.796875 0.500000
0.980785 0.195090 -1.000000 0.956940 0.290285 0.000000 0.781250 0.500000
0.980785 0.195090 -1.000000 0.995185 0.098017 0.000000 0.781250 0.500000
0.980785 0.195090 0.000000 0.995185 0.098017 0.000000 0.781250 0.750000
0.990393 0.097545 0.000000 0.995185 0.098017 0.000000 0.765625 0.750000
0.990393 0.097545 -1.000000 0.995185 0.098017 0.000000 0.765625 0.500000
0.980785 0.195090 1.000000 0.995185 0.098017 -0.000000 0.781250 1.000000
0.990393 0.097545 1.000000 0.995185 0.098017 -0.000000 0.765625 1.000000
0.990393 0.097545 0.000000 0.995185 0.098018 -0.000000 0.765625 0.750000
0.990393 0.097545 1.000000 0.995185 0.098018 -0.000000 0.765625 1.000000
1.000000 0.000000 1.000000 0.995185 0.098018 -0.000000 0.750000 1.000000
1.000000 0.000000 0.000000 0.995185 0.098018 -0.000000 0.750000 0.750000
0.990393 0.097545 -1.000000 0.995185 0.098018 0.000000 0.765625 0.500000
1.000000 0.000000 -1.000000 0.995185 0.098018 0.000000 0.750000 0.500000
1.000000 0.000000 -1.000000 0.995185 -0.098017 0.000000 0.750000 0.500000
1.000000 0.000000 0.000000 0.995185 -0.098017 0.000000 0.750000 0.750000
0.990393 -0.097545 0.000000 0.995185 -0.098017 0.000000 0.734375 0.750000
0.990393 -0.097545 -1.000000 0.995185 -0.098017 0.000000 0.734375 0.500000
1.000000 0.000000 1.000000 0.995185 -0.098017 -0.000000 0.750000 1.000000
0.990393 -0.097545 1.000000 0.995185 -0.098017 -0.000000 0.734375 1.000000
0.980785 -0.195090 1.000000 0.995185 -0.098017 -0.000000 0.718750 1.000000
0.980785 -0.195090 0.000000 0.995185 -0.098017 -0.000000 0.718750 0.750000
0.980785 -0.195090 -1.000000 0.995185 -0.098017 0.000000 0.718750 0.500000
0.980785 -0.195090 -1.000000 0.956940 -0.290285 0.000000 0.718750 0.500000
0.980785 -0.195090 0.000000 0.956940 -0.290285 0.000000 0.718750 0.750000
0.952333 -0.288887 0.000000 0.956940 -0.290285 0.000000 0.703125 0.750000
0.952333 -0.288887 -1.000000 0.956940 -0.290285 0.000000 0.703125 0.500000
0.980785 -0.195090 1.000000 0.956940 -0.290285 -0.000000 0.718750 1.000000
0.952333 -0.288887 1.000000 0.956940 -0.290285 -0.000000 0.703125 1.000000
0.923880 -0.382683 1.000000 0.956940 -0.290285 -0.000000 0.687500 1.000000
0.923880 -0.382683 0.000000 0.956940 -0.290285 -0.000000 0.687500 0.750000
0.923880 -0.382683 -1.000000 0.956940 -0.290285 0.000000 0.687500 0.500000
0.923880 -0.382683 -1.000000 0.881921 -0.471397 0.000000 0.687500 0.500000
0.923880 -0.382683 0.000000 0.881921 -0.471397 0.000000 0.687500 0.750000
0.877675 -0.469127 0.000000 0.881921 -0.471397 0.000000 0.671875 0.750000
0.877675 -0.469127 -1.000000 0.881921 -0.471397 0.000000 0.671875 0.500000
0.923880 -0.382683 1.000000 0.881921 -0.471397 -0.000000 0.687500 1.000000
0.877675 -0.469127 1.000000 0.881921 -0.471397 -0.000000 0.671875 1.000000
0.877675 -0.469127 0.000000 0.881922 -0.471396 -0.000000 0.671875 0.750000
0.877675 -0.469127 1.000000 0.881922 -0.471396 -0.000000 0.671875 1.000000
0.831470 -0.555570 1.000000 0.881922 -0.471396 -0.000000 0.656250 1.000000
0.831470 -0.555570 0.000000 0.881922 -0.471396 -0.000000 0.656250 0.750000
0.877675 -0.469127 -1.000000 0.881922 -0.471396 0.000000 0.671875 0.500000
0.831470 -0.555570 -1.000000 0.881922 -0.471396 0.000000 0.656250 0.500000
0.831470 -0.555570 -1.000000 0.773010 -0.634394 0.000000 0.656250 0.500000
0.831470 -0.555570 0.000000 0.773010 -0.634394 0.000000 0.656250 0.750000
0.769288 -0.631339 0.000000 0.773010 -0.634394 0.000000 0.640625 0.750000
0.769288 -0.631339 -1.000000 0.773010 -0.634394 0.000000 0.640625 0.500000
0.831470 -0.555570 1.000000 0.773010 -0.634394 0.000000 0.656250 1.000000
0.769288 -0.631339 1.000000 0.773010 -0.634394 0.000000 0.640625 1.000000
0.769288 -0.631339 0.000000 0.773010 -0.634393 0.000000 0.640625 0.750000
0.769288 -0.631339 1.000000 0.773010 -0.634393 0.000000 0.640625 1.000000
0.707107 -0.707107 1.000000 0.773010 -0.634393 0.000000 0.625000 1.000000
0.707107 -0.707107 0.000000 0.773010 -0.634393 0.000000 0.625000 0.750000
0.769288 -0.631339 -1.000000 0.773010 -0.634393 -0.000000 0.640625 0.500000
0.707107 -0.707107 -1.000000 0.773010 -0.634393 -0.000000 0.625000 0.500000
0.707107 -0.707107 -1.000000 0.634393 -0.773011 0.000000 0.625000 0.500000
0.707107 -0.707107 0.000000 0.634393 -0.773011 0.000000 0.625000 0.750000
0.631338 -0.769288 0.000000 0.634393 -0.773011 0.000000 0.609375 0.750000
0.631339 -0.769288 -1.000000 0.634393 -0.773011 0.000000 0.609375 0.500000
0.707107 -0.707107 1.000000 0.634393 -0.773011 -0.000000 0.625000 1.000000
0.631339 -0.769288 1.000000 0.634393 -0.773011 -0.000000 0.609375 1.000000
0.631338 -0.769288 0.000000 0.634394 -0.773010 -0.000000 0.609375 0.750000
0.631339 -0.769288 1.000000 0.634394 -0.773010 -0.000000 0.609375 1.000000
0.555570 -0.831470 1.000000 0.634394 -0.773010 -0.000000 0.593750 1.000000
0.555570 -0.831470 0.000000 0.634394 -0.773010 -0.000000 0.593750 0.750000
0.631339 -0.769288 -1.000000 0.634394 -0.773010 0.000000 0.609375 0.500000
0.555570 -0.831470 -1.000000 0.634394 -0.773010 0.000000 0.593750 0.500000
0.555570 -0.831470 -1.000000 0.471396 -0.881921 0.000000 0.593750 0.500000
0.555570 -0.831470 0.000000 0.471396 -0.881921 0.000000 0.593750 0.750000
0.469127 -0.877675 0.000000 0.471396 -0.881921 0.000000 0.578125 0.750000
0.469127 -0.877675 -1.000000 0.471396 -0.881921 0.000000 0.578125 0.500000
0.555570 -0.831470 1.000000 0.471396 -0.881921 -0.000000 0.593750 1.000000
0.469127 -0.877675 1.000000 0.471396 -0.881921 -0.000000 0.578125 1.000000
0.469127 -0.877675 0.000000 0.471397 -0.881921 -0.000000 0.578125 0.750000
0.469127 -0.877675 1.000000 0.471397 -0.881921 -0.000000 0.578125 1.000000
0.382683 -0.923880 1.000000 0.471397 -0.881921 -0.000000 0.562500 1.000000
0.382683 -0.923880 0.000000 0.471397 -0.881921 -0.000000 0.562500 0.750000
0.469127 -0.877675 -1.000000 0.471397 -0.881921 0.000000 0.578125 0.500000
0.382683 -0.923880 -1.000000 0.471397 -0.881921 0.000000 0.562500 0.500000
0.382683 -0.923880 -1.000000 0.290284 -0.956941 0.000000 0.562500 0.500000
0.382683 -0.923880 0.000000 0.290284 -0.956941 0.000000 0.562500 0.750000
0.288887 -0.952333 0.000000 0.290284 -0.956941 0.000000 0.546875 0.750000
0.288887 -0.952333 -1.000000 0.290284 -0.956941 0.000000 0.546875 0.500000
0.382683 -0.923880 1.000000 0.290284 -0.956941 -0.000000 0.562500 1.000000
0.288887 -0.952333 1.000000 0.290284 -0.956941 -0.000000 0.546875 1.000000
0.288887 -0.952333 0.000000 0.290284 -0.956940 -0.000000 0.546875 0.750000
0.288887 -0.952333 1.000000 0.290284 -0.956940 -0.000000 0.546875 1.000000
0.195090 -0.980785 1.000000 0.290284 -0.956940 -0.000000 0.531250 1.000000
0.195090 -0.980785 0.000000 0.290284 -0.956940 -0.000000 0.531250 0.750000
0.288887 -0.952333 -1.000000 0.290284 -0.956940 0.000000 0.546875 0.500000
0.195090 -0.980785 -1.000000 0.290284 -0.956940 0.000000 0.531250 0.500000
0.195090 -0.980785 -1.000000 0.098017 -0.995185 0.000000 0.531250 0.500000
0.195090 -0.980785 0.000000 0.098017 -0.995185 0.000000 0.531250 0.750000
0.097545 -0.990393 0.000000 0.098017 -0.995185 0.000000 0.515625 0.750000
0.097545 -0.990393 -1.000000 0.098017 -0.995185 0.000000 0.515625 0.500000
0.195090 -0.980785 1.000000 0.098017 -0.995185 -0.000000 0.531250 1.000000
0.097545 -0.990393 1.000000 0.098017 -0.995185 -0.000000 0.515625 1.000000
-0.000000 -1.000000 1.000000 0.098017 -0.995185 -0.000000 0.500000 1.000000
-0.000000 -1.000000 0.000000 0.098017 -0.995185 -0.000000 0.500000 0.750000
-0.000000 -1.000000 -1.000000 0.098017 -0.995185 0.000000 0.500000 0.500000
-0.000000 -1.000000 -1.000000 -0.098018 -0.995185 0.000000 0.500000 0.500000
-0.000000 -1.000000 0.000000 -0.098018 -0.995185 0.000000 0.500000 0.750000
-0.097546 -0.990393 0.000000 -0.098018 -0.995185 0.000000 0.484375 0.750000
-0.097546 -0.990393 -1.000000 -0.098018 -0.995185 0.000000 0.484375 0.500000
-0.000000 -1.000000 1.000000 -0.098018 -0.995185 0.000000 0.500000 1.000000
-0.097546 -0.990393 1.000000 -0.098018 -0.995185 0.000000 0.484375 1.000000
-0.195091 -0.980785 1.000000 -0.098018 -0.995185 -0.000000 0.468750 1.000000
-0.195091 -0.980785 0.000000 -0.098018 -0.995185 -0.000000 0.468750 0.750000
-0.195091 -0.980785 -1.000000 -0.098018 -0.995185 0.000000 0.468750 0.500000
-0.195091 -0.980785 -1.000000 -0.290285 -0.956940 0.000000 0.468750 0.500000
-0.195091 -0.980785 0.000000 -0.290285 -0.956940 0.000000 0.468750 0.750000
-0.288887 -0.952332 0.000000 -0.290285 -0.956940 0.000000 0.453125 0.750000
-0.288887 -0.952332 -1.000000 -0.290285 -0.956940 0.000000 0.453125 0.500000
-0.195091 -0.980785 1.000000 -0.290285 -0.956940 -0.000000 0.468750 1.000000
-0.288887 -0.952332 1.000000 -0.290285 -0.956940 -0.000000 0.453125 1.000000
-0.382684 -0.923879 1.000000 -0.290285 -0.956940 -0.000000 0.437500 1.000000
-0.382684 -0.923879 0.000000 -0.290285 -0.956940 -0.000000 0.437500 0.750000
-0.382684 -0.923879 -1.000000 -0.290285 -0.956940 0.000000 0.437500 0.500000
-0.382684 -0.923879 -1.000000 -0.471397 -0.881921 0.000000 0.437500 0.500000
-0.382684 -0.923879 0.000000 -0.471397 -0.881921 0.000000 0.437500 0.750000
-0.469127 -0.877674 0.000000 -0.471397 -0.881921 0.000000 0.421875 0.750000
-0.469127 -0.877674 -1.000000 -0.471397 -0.881921 0.000000 0.421875 0.500000
-0.382684 -0.923879 1.000000 -0.471397 -0.881921 -0.000000 0.437500 1.000000
-0.469127 -0.877674 1.000000 -0.471397 -0.881921 -0.000000 0.421875 1.000000
-0.555571 -0.831469 1.000000 -0.471397 -0.881921 -0.000000 0.406250 1.000000
-0.555571 -0.831469 0.000000 -0.471397 -0.881921 -0.000000 0.406250 0.750000
-0.555571 -0.831469 -1.000000 -0.471397 -0.881921 0.000000 0.406250 0.500000
-0.555571 -0.831469 -1.000000 -0.634394 -0.773010 0.000000 0.406250 0.500000
-0.555571 -0.831469 0.000000 -0.634394 -0.773010 0.000000 0.406250 0.750000
-0.631339 -0.769288 0.000000 -0.634394 -0.773010 0.000000 0.390625 0.750000
-0.631339 -0.769288 -1.000000 -0.634394 -0.773010 0.000000 0.390625 0.500000
-0.555571 -0.831469 1.000000 -0.634394 -0.773010 -0.000000 0.406250 1.000000
-0.631339 -0.769288 1.000000 -0.634394 -0.773010 -0.000000 0.390625 1.000000
-0.707107 -0.707106 1.000000 -0.634394 -0.773010 -0.000000 0.375000 1.000000
-0.707107 -0.707106 0.000000 -0.634394 -0.773010 -0.000000 0.375000 0.750000
-0.707107 -0.707106 -1.000000 -0.634394 -0.773010 0.000000 0.375000 0.500000
-0.707107 -0.707106 -1.000000 -0.773011 -0.634393 0.000000 0.375000 0.500000
-0.707107 -0.707106 0.000000 -0.773011 -0.634393 0.000000 0.375000 0.750000
-0.769289 -0.631338 0.000000 -0.773011 -0.634393 0.000000 0.359375 0.750000
-0.769289 -0.631338 -1.000000 -0.773011 -0.634393 0.000000 0.359375 0.500000
-0.707107 -0.707106 1.000000 -0.773011 -0.634393 -0.000000 0.375000 1.000000
-0.769289 -0.631338 1.000000 -0.773011 -0.634393 -0.000000 0.359375 1.000000
-0.831470 -0.555570 1.000000 -0.773011 -0.634393 -0.000000 0.343750 1.000000
-0.831470 -0.555570 0.000000 -0.773011 -0.634393 -0.000000 0.343750 0.750000
-0.831470 -0.555570 -1.000000 -0.773011 -0.634393 0.000000 0.343750 0.500000
-0.831470 -0.555570 -1.000000 -0.881922 -0.471395 0.000000 0.343750 0.500000
-0.831470 -0.555570 0.000000 -0.881922 -0.471395 0.000000 0.343750 0.750000
-0.877675 -0.469126 0.000000 -0.881922 -0.471395 0.000000 0.328125 0.750000
-0.877675 -0.469126 -1.000000 -0.881922 -0.471395 0.000000 0.328125 0.500000
-0.831470 -0.555570 1.000000 -0.881922 -0.471395 -0.000000 0.343750 1.000000
-0.877675 -0.469126 1.000000 -0.881922 -0.471395 -0.000000 0.328125 1.000000
-0.877675 -0.469126 0.000000 -0.881921 -0.471397 -0.000000 0.328125 0.750000
-0.877675 -0.469126 1.000000 -0.881921 -0.471397 -0.000000 0.328125 1.000000
-0.923880 -0.382683 1.000000 -0.881921 -0.471397 -0.000000 0.312500 1.000000
-0.923880 -0.382683 0.000000 -0.881921 -0.471397 -0.000000 0.312500 0.750000
-0.877675 -0.469126 -1.000000 -0.881921 -0.471397 0.000000 0.328125 0.500000
-0.923880 -0.382683 -1.000000 -0.881921 -0.471397 0.000000 0.312500 0.500000
-0.923880 -0.382683 -1.000000 -0.956941 -0.290283 0.000000 0.312500 0.500000
-0.923880 -0.382683 0.000000 -0.956941 -0.290283 0.000000 0.312500 0.750000
-0.952333 -0.288886 0.000000 -0.956941 -0.290283 0.000000 0.296875 0.750000
-0.952333 -0.288886 -1.000000 -0.956941 -0.290283 0.000000 0.296875 0.500000
-0.923880 -0.382683 1.000000 -0.956941 -0.290283 -0.000000 0.312500 1.000000
-0.952333 -0.288886 1.000000 -0.956941 -0.290283 -0.000000 0.296875 1.000000
-0.952333 -0.288886 0.000000 -0.956941 -0.290284 -0.000000 0.296875 0.750000
-0.952333 -0.288886 1.000000 -0.956941 -0.290284 -0.000000 0.296875 1.000000
-0.980786 -0.195089 1.000000 -0.956941 -0.290284 -0.000000 0.281250 1.000000
-0.980786 -0.195089 0.000000 -0.956941 -0.290284 -0.000000 0.281250 0.750000
-0.952333 -0.288886 -1.000000 -0.956941 -0.290284 0.000000 0.296875 0.500000
-0.980786 -0.195089 -1.000000 -0.956941 -0.290284 0.000000 0.281250 0.500000
-0.980786 -0.195089 -1.000000 -0.995185 -0.098016 0.000000 0.281250 0.500000
-0.980786 -0.195089 0.000000 -0.995185 -0.098016 0.000000 0.281250 0.750000
-0.990393 -0.097544 0.000000 -0.995185 -0.098016 0.000000 0.265625 0.750000
-0.990393 -0.097544 -1.000000 -0.995185 -0.098016 0.000000 0.265625 0.500000
-0.980786 -0.195089 1.000000 -0.995185 -0.098016 -0.000000 0.281250 1.000000
-0.990393 -0.097544 1.000000 -0.995185 -0.098016 -0.000000 0.265625 1.000000
-0.990393 -0.097544 0.000000 -0.995185 -0.098017 -0.000000 0.265625 0.750000
-0.990393 -0.097544 1.000000 -0.995185 -0.098017 -0.000000 0.265625 1.000000
-1.000000 0.000001 1.000000 -0.995185 -0.098017 -0.000000 0.250000 1.000000
-1.000000 0.000001 0.000000 -0.995185 -0.098017 -0.000000 0.250000 0.750000
-0.990393 -0.097544 -1.000000 -0.995185 -0.098017 0.000000 0.265625 0.500000
-1.000000 0.000001 -1.000000 -0.995185 -0.098017 0.000000 0.250000 0.500000
-1.000000 0.000001 -1.000000 -0.995185 0.098018 0.000000 0.250000 0.500000
-1.000000 0.000001 0.000000 -0.995185 0.098018 0.000000 0.250000 0.750000
-0.990393 0.097546 0.000000 -0.995185 0.098018 0.000000 0.234375 0.750000
-0.990393 0.097546 -1.000000 -0.995185 0.098018 0.000000 0.234375 0.500000
-1.000000 0.000001 1.000000 -0.995185 0.098018 -0.000000 0.250000 1.000000
-0.990393 0.097546 1.000000 -0.995185 0.098018 -0.000000 0.234375 1.000000
-0.980785 0.195091 1.000000 -0.995185 0.098018 -0.000000 0.218750 1.000000
-0.980785 0.195091 0.000000 -0.995185 0.098018 -0.000000 0.218750 0.750000
-0.980785 0.195091 -1.000000 -0.995185 0.098018 0.000000 0.218750 0.500000
-0.980785 0.195091 -1.000000 -0.956940 0.290286 -0.000000 0.218750 0.500000
-0.980785 0.195091 0.000000 -0.956940 0.290286 -0.000000 0.218750 0.750000
-0.952332 0.288888 0.000000 -0.956940 0.290286 -0.000000 0.203125 0.750000
-0.952332 0.288888 -1.000000 -0.956940 0.290286 -0.000000 0.203125 0.500000
-0.980785 0.195091 1.000000 -0.956940 0.290286 0.000000 0.218750 1.000000
-0.952332 0.288888 1.000000 -0.956940 0.290286 0.000000 0.203125 1.000000
-0.952332 0.288888 0.000000 -0.956940 0.290285 0.000000 0.203125 0.750000
-0.952332 0.288888 1.000000 -0.956940 0.290285 0.000000 0.203125 1.000000
-0.923879 0.382685 1.000000 -0.956940 0.290285 0.000000 0.187500 1.000000
-0.923879 0.382685 0.000000 -0.956940 0.290285 0.000000 0.187500 0.750000
-0.952332 0.288888 -1.000000 -0.956940 0.290285 -0.000000 0.203125 0.500000
-0.923879 0.382685 -1.000000 -0.956940 0.290285 -0.000000 0.187500 0.500000
-0.923879 0.382685 -1.000000 -0.881920 0.471398 0.000000 0.187500 0.500000
-0.923879 0.382685 0.000000 -0.881920 0.471398 0.000000 0.187500 0.750000
-0.877674 0.469128 0.000000 -0.881920 0.471398 0.000000 0.171875 0.750000
-0.877674 0.469128 -1.000000 -0.881920 0.471398 0.000000 0.171875 0.500000
-0.923879 0.382685 1.000000 -0.881920 0.471398 0.000000 0.187500 1.000000
-0.877674 0.469128 1.000000 -0.881920 0.471398 0.000000 0.171875 1.000000
-0.877674 0.469128 0.000000 -0.881921 0.471397 -0.000000 0.171875 0.750000
-0.877674 0.469128 1.000000 -0.881921 0.471397 -0.000000 0.171875 1.000000
-0.831469 0.555571 1.000000 -0.881921 0.471397 -0.000000 0.156250 1.000000
-0.831469 0.555571 0.000000 -0.881921 0.471397 -0.000000 0.156250 0.750000
-0.877674 0.469128 -1.000000 -0.881921 0.471397 0.000000 0.171875 0.500000
-0.831469 0.555571 -1.000000 -0.881921 0.471397 0.000000 0.156250 0.500000
-0.831469 0.555571 -1.000000 -0.773009 0.634395 0.000000 0.156250 0.500000
-0.831469 0.555571 0.000000 -0.773009 0.634395 0.000000 0.156250 0.750000
-0.769287 0.631339 0.000000 -0.773009 0.634395 0.000000 0.140625 0.750000
-0.769288 0.631340 -1.000000 -0.773009 0.634395 0.000000 0.140625 0.500000
-0.831469 0.555571 1.000000 -0.773009 0.634395 -0.000000 0.156250 1.000000
-0.769288 0.631340 1.000000 -0.773009 0.634395 -0.000000 0.140625 1.000000
-0.769287 0.631339 0.000000 -0.773010 0.634394 -0.000000 0.140625 0.750000
-0.769288 0.631340 1.000000 -0.773010 0.634394 -0.000000 0.140625 1.000000
-0.707106 0.707108 1.000000 -0.773010 0.634394 -0.000000 0.125000 1.000000
-0.707106 0.707108 0.000000 -0.773010 0.634394 -0.000000 0.125000 0.750000
-0.769288 0.631340 -1.000000 -0.773010 0.634394 0.000000 0.140625 0.500000
-0.707106 0.707108 -1.000000 -0.773010 0.634394 0.000000 0.125000 0.500000
-0.707106 0.707108 -1.000000 -0.634392 0.773011 0.000000 0.125000 0.500000
-0.707106 0.707108 0.000000 -0.634392 0.773011 0.000000 0.125000 0.750000
-0.631338 0.769289 0.000000 -0.634392 0.773011 0.000000 0.109375 0.750000
-0.631338 0.769289 -1.000000 -0.634392 0.773011 0.000000 0.109375 0.500000
-0.707106 0.707108 1.000000 -0.634392 0.773011 -0.000000 0.125000 1.000000
-0.631338 0.769289 1.000000 -0.634392 0.773011 -0.000000 0.109375 1.000000
-0.631338 0.769289 0.000000 -0.634393 0.773011 -0.000000 0.109375 0.750000
-0.631338 0.769289 1.000000 -0.634393 0.773011 -0.000000 0.109375 1.000000
-0.555569 0.831470 1.000000 -0.634393 0.773011 -0.000000 0.093750 1.000000
-0.555569 0.831470 0.000000 -0.634393 0.773011 -0.000000 0.093750 0.750000
-0.631338 0.769289 -1.000000 -0.634393 0.773011 0.000000 0.109375 0.500000
-0.555569 0.831470 -1.000000 -0.634393 0.773011 0.000000 0.093750 0.500000
-0.555569 0.831470 -1.000000 -0.471395 0.881922 0.000000 0.093750 0.500000
-0.555569 0.831470 0.000000 -0.471395 0.881922 0.000000 0.093750 0.750000
-0.469126 0.877675 0.000000 -0.471395 0.881922 0.000000 0.078125 0.750000
-0.469126 0.877675 -1.000000 -0.471395 0.881922 0.000000 0.078125 0.500000
-0.555569 0.831470 1.000000 -0.471395 0.881922 -0.000000 0.093750 1.000000
-0.469126 0.877675 1.000000 -0.471395 0.881922 -0.000000 0.078125 1.000000
-0.469126 0.877675 0.000000 -0.471396 0.881922 -0.000000 0.078125 0.750000
-0.469126 0.877675 1.000000 -0.471396 0.881922 -0.000000 0.078125 1.000000
-0.382682 0.923880 1.000000 -0.471396 0.881922 -0.000000 0.062500 1.000000
-0.382682 0.923880 0.000000 -0.471396 0.881922 -0.000000 0.062500 0.750000
-0.469126 0.877675 -1.000000 -0.471396 0.881922 0.000000 0.078125 0.500000
-0.382682 0.923880 -1.000000 -0.471396 0.881922 0.000000 0.062500 0.500000
0.195090 0.980785 1.000000 0.000000 0.000000 1.000000 0.296822 0.485389
0.097545 0.990393 1.000000 0.000000 0.000000 1.000000 0.273411 0.487694
0.000000 0.000001 1.000000 0.000000 0.000000 1.000000 0.250000 0.250000
0.288887 0.952333 1.000000 0.000000 0.000000 1.000000 0.319333 0.478560
0.000000 1.000000 1.000000 0.000000 0.000000 1.000000 0.250000 0.490000
-0.097544 0.990393 1.000000 0.000000 0.000000 1.000000 0.226589 0.487694
-0.195089 0.980786 1.000000 -0.000000 0.000000 1.000000 0.203179 0.485389
-0.288886 0.952333 1.000000 -0.000000 0.000000 1.000000 0.180668 0.478560
-0.382682 0.923880 1.000000 -0.000000 0.000000 1.000000 0.158156 0.471731
-0.469126 0.877675 1.000000 -0.000000 0.000000 1.000000 0.137410 0.460642
-0.555569 0.831470 1.000000 -0.000000 0.000000 1.000000 0.116663 0.449553
-0.631338 0.769289 1.000000 -0.000000 0.000000 1.000000 0.098479 0.434629
-0.707106 0.707108 1.000000 -0.000000 0.000000 1.000000 0.080295 0.419706
-0.769288 0.631340 1.000000 -0.000000 0.000000 1.000000 0.065371 0.401522
-0.831469 0.555571 1.000000 -0.000000 0.000000 1.000000 0.050447 0.383337
-0.877674 0.469128 1.000000 -0.000000 0.000000 1.000000 0.039358 0.362591
-0.923879 0.382685 1.000000 -0.000000 0.000000 1.000000 0.028269 0.341844
-0.952332 0.288888 1.000000 -0.000000 0.000000 1.000000 0.021440 0.319333
-0.980785 0.195091 1.000000 -0.000000 0.000000 1.000000 0.014612 0.296822
-0.990393 0.097546 1.000000 -0.000000 0.000000 1.000000 0.012306 0.273411
-1.000000 0.000001 1.000000 -0.000000 0.000000 1.000000 0.010000 0.250000
-0.990393 -0.097544 1.000000 -0.000000 0.000000 1.000000 0.012306 0.226589
-0.980786 -0.195089 1.000000 -0.000000 -0.000000 1.000000 0.014611 0.203179
-0.952333 -0.288886 1.000000 -0.000000 -0.000000 1.000000 0.021440 0.180667
-0.923880 -0.382683 1.000000 -0.000000 -0.000000 1.000000 0.028269 0.158156
-0.877675 -0.469126 1.000000 -0.000000 -0.000000 1.000000 0.039358 0.137410
-0.831470 -0.555570 1.000000 -0.000000 -0.000000 1.000000 0.050447 0.116663
-0.769289 -0.631338 1.000000 -0.000000 -0.000000 1.000000 0.065371 0.098479
-0.707107 -0.707106 1.000000 -0.000000 -0.000000 1.000000 0.080294 0.080294
-0.631339 -0.769288 1.000000 -0.000000 -0.000000 1.000000 0.098479 0.065371
-0.555571 -0.831469 1.000000 -0.000000 -0.000000 1.000000 0.116663 0.050447
-0.469127 -0.877674 1.000000 -0.000000 -0.000000 1.000000 0.137409 0.039358
-0.382684 -0.923879 1.000000 -0.000000 -0.000000 1.000000 0.158156 0.028269
-0.288887 -0.952332 1.000000 -0.000000 -0.000000 1.000000 0.180667 0.021440
-0.195091 -0.980785 1.000000 -0.000000 -0.000000 1.000000 0.203178 0.014612
-0.097546 -0.990393 1.000000 -0.000000 -0.000000 1.000000 0.226589 0.012306
-0.000000 -1.000000 1.000000 -0.000000 -0.000000 1.000000 0.250000 0.010000
0.097545 -0.990393 1.000000 -0.000000 -0.000000 1.000000 0.273411 0.012306
0.195090 -0.980785 1.000000 0.000000 -0.000000 1.000000 0.296822 0.014612
0.288887 -0.952333 1.000000 0.000000 -0.000000 1.000000 0.319333 0.021440
0.382683 -0.923880 1.000000 0.000000 -0.000000 1.000000 0.341844 0.028269
0.469127 -0.877675 1.000000 0.000000 -0.000000 1.000000 0.362590 0.039358
0.555570 -0.831470 1.000000 0.000000 -0.000000 1.000000 0.383337 0.050447
0.631339 -0.769288 1.000000 0.000000 -0.000000 1.000000 0.401521 0.065371
0.707107 -0.707107 1.000000 0.000000 -0.000000 1.000000 0.419706 0.080294
0.769288 -0.631339 1.000000 0.000000 -0.000000 1.000000 0.434629 0.098479
0.831470 -0.555570 1.000000 0.000000 -0.000000 1.000000 0.449553 0.116663
0.877675 -0.469127 1.000000 0.000000 -0.000000 1.000000 0.460642 0.137410
0.923880 -0.382683 1.000000 0.000000 -0.000000 1.000000 0.471731 0.158156
0.952333 -0.288887 1.000000 0.000000 -0.000000 1.000000 0.478560 0.180667
0.980785 -0.195090 1.000000 0.000000 -0.000000 1.000000 0.485389 0.203178
0.990393 -0.097545 1.000000 0.000000 -0.000000 1.000000 0.487694 0.226589
1.000000 0.000000 1.000000 0.000000 0.000000 1.000000 0.490000 0.250000
0.990393 0.097545 1.000000 0.000000 0.000000 1.000000 0.487694 0.273411
0.980785 0.195090 1.000000 0.000000 0.000000 1.000000 0.485389 0.296822
0.952333 0.288887 1.000000 0.000000 0.000000 1.000000 0.478560 0.319333
0.923880 0.382683 1.000000 0.000000 0.000000 1.000000 0.471731 0.341844
0.877675 0.469127 1.000000 0.000000 0.000000 1.000000 0.460642 0.362590
0.831470 0.555570 1.000000 0.000000 0.000000 1.000000 0.449553 0.383337
0.769288 0.631339 1.000000 0.000000 0.000000 1.000000 0.434629 0.401521
0.707107 0.707107 1.000000 0.000000 0.000000 1.000000 0.419706 0.419706
0.631339 0.769288 1.000000 0.000000 0.000000 1.000000 0.401521 0.434629
0.555570 0.831470 1.000000 0.000000 0.000000 1.000000 0.383337 0.449553
0.469127 0.877675 1.000000 0.000000 0.000000 1.000000 0.362590 0.460642
0.382684 0.923880 1.000000 0.000000 0.000000 1.000000 0.341844 0.471731
-0.382682 0.923880 -1.000000 -0.290283 0.956941 0.000000 0.062500 0.500000
-0.382682 0.923880 0.000000 -0.290283 0.956941 0.000000 0.062500 0.750000
-0.288885 0.952333 0.000000 -0.290283 0.956941 0.000000 0.046875 0.750000
-0.288885 0.952333 -1.000000 -0.290283 0.956941 0.000000 0.046875 0.500000
-0.382682 0.923880 1.000000 -0.290283 0.956941 -0.000000 0.062500 1.000000
-0.288886 0.952333 1.000000 -0.290283 0.956941 -0.000000 0.046875 1.000000
-0.195089 0.980786 1.000000 -0.290283 0.956941 -0.000000 0.031250 1.000000
-0.195089 0.980786 0.000000 -0.290283 0.956941 -0.000000 0.031250 0.750000
-0.195089 0.980786 -1.000000 -0.290283 0.956941 0.000000 0.031250 0.500000
-0.195089 0.980786 -1.000000 -0.098016 0.995185 -0.000000 0.031250 0.500000
-0.195089 0.980786 0.000000 -0.098016 0.995185 -0.000000 0.031250 0.750000
-0.097544 0.990393 0.000000 -0.098016 0.995185 -0.000000 0.015625 0.750000
-0.097544 0.990393 -1.000000 -0.098016 0.995185 -0.000000 0.015625 0.500000
-0.195089 0.980786 1.000000 -0.098016 0.995185 0.000000 0.031250 1.000000
-0.097544 0.990393 1.000000 -0.098016 0.995185 0.000000 0.015625 1.000000
-0.097544 0.990393 0.000000 -0.098017 0.995185 -0.000000 0.015625 0.750000
-0.097544 0.990393 1.000000 -0.098017 0.995185 -0.000000 0.015625 1.000000
0.000000 1.000000 1.000000 -0.098017 0.995185 -0.000000 0.000000 1.000000
0.000000 1.000000 0.000000 -0.098017 0.995185 -0.000000 0.000000 0.750000
-0.097544 0.990393 -1.000000 -0.098017 0.995185 0.000000 0.015625 0.500000
0.000000 1.000000 -1.000000 -0.098017 0.995185 0.000000 0.000000 0.500000
0.000000 1.000000 -1.000000 0.000000 0.000000 -1.000000 0.750000 0.490000
0.097545 0.990393 -1.000000 0.000000 0.000000 -1.000000 0.773411 0.487694
-0.000000 0.000001 -1.000000 0.000000 0.000000 -1.000000 0.750000 0.250000
-0.097544 0.990393 -1.000000 0.000000 0.000000 -1.000000 0.726589 0.487694
0.195090 0.980785 -1.000000 0.000000 0.000000 -1.000000 0.796822 0.485389
0.288887 0.952333 -1.000000 0.000000 0.000000 -1.000000 0.819333 0.478560
0.382684 0.923880 -1.000000 0.000000 0.000000 -1.000000 0.841844 0.471731
0.469127 0.877675 -1.000000 0.000000 0.000000 -1.000000 0.862591 0.460642
0.555570 0.831470 -1.000000 0.000000 0.000000 -1.000000 0.883337 0.449553
0.631339 0.769288 -1.000000 0.000000 0.000000 -1.000000 0.901521 0.434629
0.707107 0.707107 -1.000000 0.000000 0.000000 -1.000000 0.919706 0.419706
0.769288 0.631339 -1.000000 0.000000 0.000000 -1.000000 0.934629 0.401521
0.831470 0.555570 -1.000000 0.000000 0.000000 -1.000000 0.949553 0.383337
0.877675 0.469127 -1.000000 0.000000 0.000000 -1.000000 0.960642 0.362590
0.923880 0.382683 -1.000000 0.000000 0.000000 -1.000000 0.971731 0.341844
0.952333 0.288887 -1.000000 0.000000 0.000000 -1.000000 0.978560 0.319333
0.980785 0.195090 -1.000000 0.000000 0.000000 -1.000000 0.985389 0.296822
0.990393 0.097545 -1.000000 0.000000 0.000000 -1.000000 0.987694 0.273411
1.000000 0.000000 -1.000000 0.000000 0.000000 -1.000000 0.990000 0.250000
0.990393 -0.097545 -1.000000 0.000000 0.000000 -1.000000 0.987694 0.226589
0.980785 -0.195090 -1.000000 0.000000 -0.000000 -1.000000 0.985389 0.203178
0.952333 -0.288887 -1.000000 0.000000 -0.000000 -1.000000 0.978560 0.180667
0.923880 -0.382683 -1.000000 0.000000 -0.000000 -1.000000 0.971731 0.158156
0.877675 -0.469127 -1.000000 0.000000 -0.000000 -1.000000 0.960642 0.137410
0.831470 -0.555570 -1.000000 0.000000 -0.000000 -1.000000 0.949553 0.116663
0.769288 -0.631339 -1.000000 0.000000 -0.000000 -1.000000 0.934629 0.098479
0.707107 -0.707107 -1.000000 0.000000 -0.000000 -1.000000 0.919706 0.080294
0.631339 -0.769288 -1.000000 0.000000 -0.000000 -1.000000 0.901521 0.065371
0.555570 -0.831470 -1.000000 0.000000 -0.000000 -1.000000 0.883337 0.050447
0.469127 -0.877675 -1.000000 0.000000 -0.000000 -1.000000 0.862591 0.039358
0.382683 -0.923880 -1.000000 0.000000 -0.000000 -1.000000 0.841844 0.028269
0.288887 -0.952333 -1.000000 0.000000 -0.000000 -1.000000 0.819333 0.021440
0.195090 -0.980785 -1.000000 0.000000 -0.000000 -1.000000 0.796822 0.014612
0.097545 -0.990393 -1.000000 0.000000 -0.000000 -1.000000 0.773411 0.012306
-0.000000 -1.000000 -1.000000 -0.000000 -0.000000 -1.000000 0.750000 0.010000
-0.097546 -0.990393 -1.000000 -0.000000 -0.000000 -1.000000 0.726589 0.012306
-0.195091 -0.980785 -1.000000 -0.000000 -0.000000 -1.000000 0.703178 0.014612
-0.288887 -0.952332 -1.000000 -0.000000 -0.000000 -1.000000 0.680667 0.021440
-0.382684 -0.923879 -1.000000 -0.000000 -0.000000 -1.000000 0.658156 0.028269
-0.469127 -0.877674 -1.000000 -0.000000 -0.000000 -1.000000 0.637410 0.039358
-0.555571 -0.831469 -1.000000 -0.000000 -0.000000 -1.000000 0.616663 0.050447
-0.631339 -0.769288 -1.000000 -0.000000 -0.000000 -1.000000 0.598479 0.065371
-0.707107 -0.707106 -1.000000 -0.000000 -0.000000 -1.000000 0.580294 0.080294
-0.769289 -0.631338 -1.000000 -0.000000 -0.000000 -1.000000 0.565371 0.098479
-0.831470 -0.555570 -1.000000 -0.000000 -0.000000 -1.000000 0.550447 0.116663
-0.877675 -0.469126 -1.000000 -0.000000 -0.000000 -1.000000 0.539358 0.137410
-0.923880 -0.382683 -1.000000 -0.000000 -0.000000 -1.000000 0.528269 0.158156
-0.952333 -0.288886 -1.000000 -0.000000 -0.000000 -1.000000 0.521440 0.180667
-0.980786 -0.195089 -1.000000 -0.000000 -0.000000 -1.000000 0.514612 0.203179
-0.990393 -0.097544 -1.000000 -0.000000 -0.000000 -1.000000 0.512306 0.226589
-1.000000 0.000001 -1.000000 -0.000000 0.000000 -1.000000 0.510000 0.250000
-0.990393 0.097546 -1.000000 -0.000000 0.000000 -1.000000 0.512306 0.273411
-0.980785 0.195091 -1.000000 -0.000000 0.000000 -1.000000 0.514612 0.296822
-0.952332 0.288888 -1.000000 -0.000000 0.000000 -1.000000 0.521440 0.319333
-0.923879 0.382685 -1.000000 -0.000000 0.000000 -1.000000 0.528269 0.341844
-0.877674 0.469128 -1.000000 -0.000000 0.000000 -1.000000 0.539358 0.362591
-0.831469 0.555571 -1.000000 -0.000000 0.000000 -1.000000 0.550448 0.383337
-0.769288 0.631340 -1.000000 -0.000000 0.000000 -1.000000 0.565371 0.401522
-0.707106 0.707108 -1.000000 -0.000000 0.000000 -1.000000 0.580295 0.419706
-0.631338 0.769289 -1.000000 -0.000000 0.000000 -1.000000 0.598479 0.434629
-0.555569 0.831470 -1.000000 -0.000000 0.000000 -1.000000 0.616663 0.449553
-0.469126 0.877675 -1.000000 -0.000000 0.000000 -1.000000 0.637410 0.460642
-0.382682 0.923880 -1.000000 -0.000000 0.000000 -1.000000 0.658156 0.471731
-0.288885 0.952333 -1.000000 -0.000000 0.000000 -1.000000 0.680668 0.478560
-0.195089 0.980786 -1.000000 -0.000000 0.000000 -1.000000 0.703179 0.485389
4 0 1 2 3
4 1 4 5 2
4 6 7 8 9
4 10 6 9 11
4 12 13 14 15
4 13 16 17 14
4 18 19 20 21
4 22 18 21 23
4 24 25 26 27
4 25 28 29 26
4 30 31 32 33
4 34 30 33 35
4 36 37 38 39
4 37 40 41 38
4 38 41 42 43
4 39 38 43 44
4 45 46 47 48
4 46 49 50 47
4 51 52 53 54
4 55 51 54 56
4 57 58 59 60
4 58 61 62 59
4 63 64 65 66
4 67 63 66 68
4 69 70 71 72
4 70 73 74 71
4 75 76 77 78
4 79 75 78 80
4 81 82 83 84
4 82 85 86 83
4 87 88 89 90
4 91 87 90 92
4 93 94 95 96
4 94 97 98 95
4 95 98 99 100
4 96 95 100 101
4 102 103 104 105
4 103 106 107 104
4 104 107 108 109
4 105 104 109 110
4 111 112 113 114
4 112 115 116 113
4 117 118 119 120
4 121 117 120 122
4 123 124 125 126
4 124 127 128 125
4 129 130 131 132
4 133 129 132 134
4 135 136 137 138
4 136 139 140 137
4 141 142 143 144
4 145 141 144 146
4 147 148 149 150
4 148 151 152 149
4 153 154 155 156
4 157 153 156 158
4 159 160 161 162
4 160 163 164 161
4 165 166 167 168
4 169 165 168 170
4 171 172 173 174
4 172 175 176 173
4 173 176 177 178
4 174 173 178 179
4 180 181 182 183
4 181 184 185 182
4 182 185 186 187
4 183 182 187 188
4 189 190 191 192
4 190 193 194 191
4 191 194 195 196
4 192 191 196 197
4 198 199 200 201
4 199 202 203 200
4 200 203 204 205
4 201 200 205 206
4 207 208 209 210
4 208 211 212 209
4 209 212 213 214
4 210 209 214 215
4 216 217 218 219
4 217 220 221 218
4 218 221 222 223
4 219 218 223 224
4 225 226 227 228
4 226 229 230 227
4 231 232 233 234
4 235 231 234 236
4 237 238 239 240
4 238 241 242 239
4 243 244 245 246
4 247 243 246 248
4 249 250 251 252
4 250 253 254 251
4 255 256 257 258
4 259 255 258 260
4 261 262 263 264
4 262 265 266 263
4 263 266 267 268
4 264 263 268 269
4 270 271 272 273
4 271 274 275 272
4 276 277 278 279
4 280 276 279 281
4 282 283 284 285
4 283 286 287 284
4 288 289 290 291
4 292 288 291 293
4 294 295 296 297
4 295 298 299 296
4 300 301 302 303
4 304 300 303 305
4 306 307 308 309
4 307 310 311 308
4 312 313 314 315
4 316 312 315 317
4 318 319 320 321
4 319 322 323 320
4 324 325 326 327
4 328 324 327 329
4 330 331 332 333
4 334 335 332 331
4 336 337 332 335
4 338 339 332 337
4 340 341 332 339
4 342 343 332 341
4 344 345 332 343
4 346 347 332 345
4 348 349 332 347
4 350 351 332 349
4 352 353 332 351
4 354 355 332 353
4 356 357 332 355
4 358 359 332 357
4 360 361 332 359
4 362 363 332 361
4 364 365 332 363
4 366 367 332 365
4 368 369 332 367
4 370 371 332 369
4 372 373 332 371
4 374 375 332 373
4 376 377 332 375
4 378 379 332 377
4 380 381 332 379
4 382 383 332 381
4 384 385 332 383
4 386 387 332 385
4 388 389 332 387
4 390 391 332 389
4 392 393 332 391
4 394 333 332 393
4 395 396 397 398
4 396 399 400 397
4 397 400 401 402
4 398 397 402 403
4 404 405 406 407
4 405 408 409 406
4 410 411 412 413
4 414 410 413 415
4 416 417 418 419
4 420 421 418 417
4 422 423 418 421
4 424 425 418 423
4 426 427 418 425
4 428 429 418 427
4 430 431 418 429
4 432 433 418 431
4 434 435 418 433
4 436 437 418 435
4 438 439 418 437
4 440 441 418 439
4 442 443 418 441
4 444 445 418 443
4 446 447 418 445
4 448 449 418 447
4 450 451 418 449
4 452 453 418 451
4 454 455 418 453
4 456 457 418 455
4 458 459 418 457
4 460 461 418 459
4 462 463 418 461
4 464 465 418 463
4 466 467 418 465
4 468 469 418 467
4 470 471 418 469
4 472 473 418 471
4 474 475 418 473
4 476 477 418 475
4 478 479 418 477
4 480 419 418 479
